<svg viewBox="0 0 1024 1024" xmlns="http://www.w3.org/2000/svg">
  <defs>
    <linearGradient id="bg" x1="0" y1="0" x2="1" y2="1">
      <stop offset="0%" stop-color="#3A1C71"/>
      <stop offset="55%" stop-color="#5B2A86"/>
      <stop offset="100%" stop-color="#1B1035"/>
    </linearGradient>
    <radialGradient id="ghostGlow" cx="50%" cy="42%" r="60%">
      <stop offset="0%" stop-color="#FFFFFF"/>
      <stop offset="100%" stop-color="#E7E2FF"/>
    </radialGradient>
    <filter id="soft" x="-30%" y="-30%" width="160%" height="160%">
      <feGaussianBlur stdDeviation="6"/>
    </filter>
  </defs>
  <rect x="0" y="0" width="1024" height="1024" rx="230" ry="230" fill="url(#bg)"/>
  <g stroke="#FFD166" stroke-linecap="round" fill="none" opacity="0.9">
    <path d="M690 470 a70 70 0 0 1 0 120" stroke-width="20"/>
    <path d="M745 440 a120 120 0 0 1 0 180" stroke-width="20" opacity="0.7"/>
    <path d="M800 410 a170 170 0 0 1 0 240" stroke-width="20" opacity="0.45"/>
  </g>
  <g>
    <path d="M512 250 C 380 250 300 350 300 480 L 300 720 C 300 752 332 760 352 738 C 372 716 396 716 416 738 C 436 760 468 760 488 738 C 508 716 532 716 552 738 C 572 760 604 760 624 738 C 644 716 668 716 688 738 C 708 760 724 750 724 720 L 724 480 C 724 350 644 250 512 250 Z" fill="url(#ghostGlow)"/>
    <ellipse cx="452" cy="430" rx="34" ry="44" fill="#2A1A4A"/>
    <ellipse cx="572" cy="430" rx="34" ry="44" fill="#2A1A4A"/>
    <circle cx="462" cy="416" r="10" fill="#FFFFFF"/>
    <circle cx="582" cy="416" r="10" fill="#FFFFFF"/>
    <ellipse cx="512" cy="540" rx="46" ry="58" fill="#2A1A4A"/>
    <ellipse cx="512" cy="560" rx="26" ry="22" fill="#C74B6A"/>
  </g>
</svg>
